<svg xmlns="http://www.w3.org/2000/svg" enable-background="new 0 0 64 64" viewBox="0 0 64 64" id="emoticon"><path fill="#f9d500" d="M32,0C14.4,0,0,14.4,0,32c0,17.7,14.4,32,32,32s32-14.3,32-32C64,14.4,49.6,0,32,0z M42.2,16.7
				c1.4,0,2.6,1.2,2.6,2.6c0,1.4-1.2,2.6-2.6,2.6c-1.4,0-2.6-1.2-2.6-2.6C39.6,17.8,40.8,16.7,42.2,16.7z M21.8,16.7
				c1.4,0,2.6,1.2,2.6,2.6c0,1.4-1.2,2.6-2.6,2.6c-1.4,0-2.6-1.2-2.6-2.6C19.2,17.8,20.4,16.7,21.8,16.7z M46.2,49.1
				c-0.6,0-1-0.5-1-1C45.2,40.9,39.3,35,32,35c-7.3,0-13.2,5.9-13.2,13.1c0,0.6-0.5,1-1,1c-0.6,0-1-0.5-1-1C16.7,39.8,23.6,33,32,33
				s15.3,6.8,15.3,15.1C47.3,48.7,46.8,49.1,46.2,49.1z"></path><path fill="#eabe03" d="M64,32c0,17.7-14.4,32-32,32c-10.1,0-19.1-4.7-25-12c5.5,4.4,12.4,7,20,7c17.6,0,32-14.3,32-32
				c0-7.6-2.6-14.5-7-20C59.3,12.9,64,21.9,64,32z"></path><path fill="#322e63" d="M44.8 19.3c0 1.4-1.2 2.6-2.6 2.6-1.4 0-2.6-1.2-2.6-2.6 0-1.4 1.2-2.6 2.6-2.6C43.6 16.7 44.8 17.8 44.8 19.3zM24.4 19.3c0 1.4-1.2 2.6-2.6 2.6-1.4 0-2.6-1.2-2.6-2.6 0-1.4 1.2-2.6 2.6-2.6C23.2 16.7 24.4 17.8 24.4 19.3zM47.3 48.1c0 .6-.5 1-1 1-.6 0-1-.5-1-1C45.2 40.9 39.3 35 32 35c-7.3 0-13.2 5.9-13.2 13.1 0 .6-.5 1-1 1-.6 0-1-.5-1-1C16.7 39.8 23.6 33 32 33S47.3 39.8 47.3 48.1z"></path></svg>