<svg xmlns="http://www.w3.org/2000/svg" viewBox="0 0 512 512" id="smile"><circle cx="255.1" cy="256" r="256" fill="#ecb13a"></circle><circle cx="247.9" cy="244" r="242.5" fill="#ffde4f"></circle><path fill="#645033" d="M247.6 372.5c-68.2 0-123.8-45.1-123.8-100.5 0-4.6 3.7-8.3 8.3-8.3 4.6 0 8.3 3.7 8.3 8.3 0 46.3 48.1 83.9 107.2 83.9s107.2-37.7 107.2-83.9c0-4.6 3.7-8.3 8.3-8.3 4.6 0 8.3 3.7 8.3 8.3 0 55.4-55.6 100.5-123.8 100.5z"></path><circle cx="142.5" cy="163.9" r="34.4" fill="#645033"></circle><circle cx="364.4" cy="164.3" r="34.4" fill="#645033"></circle></svg>